<svg width="200" height="60" xmlns="http://www.w3.org/2000/svg">
 <!-- Created with Method Draw - http://github.com/duopixel/Method-Draw/ -->
 <g>
  <title>background</title>
  <rect fill="#fff" id="canvas_background" height="62" width="202" y="-1" x="-1"/>
  <g display="none" overflow="visible" y="0" x="0" height="100%" width="100%" id="canvasGrid">
   <rect fill="url(#gridpattern)" stroke-width="0" y="0" x="0" height="100%" width="100%"/>
  </g>
 </g>
 <g>
  <title>Layer 1</title>
  <path stroke="#000" transform="rotate(1.7709705829620361 185.25228881835903,41.65141677856491) " id="svg_13" d="m184.905893,52.06431c-1.399593,-0.331741 -2.210417,-1.695599 -2.114775,-2.932846c-0.035829,-1.616076 0.131047,-3.3166 -0.73386,-4.802563c-0.492986,-1.10948 -1.332793,-2.089053 -1.683256,-3.245251c-0.436116,-1.793764 0.10258,-3.826813 1.7257,-5.031036c1.830497,-1.401454 4.75366,-1.584118 6.768673,-0.392967c1.421204,0.874687 2.446634,2.317347 2.408539,3.891628c0.166762,1.176337 -0.352841,2.282783 -0.964097,3.294037c-0.43794,0.814232 -0.94939,1.610997 -1.346887,2.434308c-0.10479,1.688091 -0.044691,3.391666 -0.328924,5.065238c-0.473479,1.296826 -2.257839,2.178539 -3.731112,1.719452l0,0.000001zm3.696532,-3.018336c-0.830619,-0.400045 -2.024213,-0.139955 -2.989687,-0.226079c-0.788664,0.140945 -2.190035,-0.289089 -2.609305,0.35598c0.958843,0.335137 2.085685,0.083913 3.106465,0.13936c0.816777,-0.070092 1.756498,0.066468 2.492527,-0.269262l0,0.000001zm-0.062207,-0.752768c0.122239,-1.01635 -1.676533,-0.497725 -2.407261,-0.649023c-0.967167,0.174913 -2.506326,-0.374409 -3.114597,0.406487c0.360443,0.784741 1.967924,0.232842 2.812041,0.406955c0.900166,-0.028501 1.834043,0.028827 2.709817,-0.164419l0,0zm0.011199,-1.780734c0.23746,-1.979876 1.592302,-3.628374 2.376815,-5.439457c0.64502,-2.168387 -0.632423,-4.645669 -2.945218,-5.555865c-2.302033,-1.019403 -5.369085,-0.249306 -6.67004,1.748193c-1.253479,1.649985 -1.014261,3.891855 0.210857,5.496452c0.874153,1.402334 1.571593,2.978263 1.457982,4.610259c1.814537,0 3.629075,0 5.443614,0c0.041998,-0.286523 0.083983,-0.573065 0.12599,-0.859582zm-4.017083,-2.804948c-0.718927,-1.11691 -1.456959,-2.242427 -1.957584,-3.452883c0.450094,-0.520576 0.581029,-1.100442 0.720849,-1.712093c1.26328,-0.221712 -0.160801,1.286293 1.031915,1.320276c1.058717,0.41158 0.594273,-1.997118 1.473875,-1.128896c-0.631409,0.952867 1.240255,1.90079 1.308947,0.537669c-0.090735,-1.029221 1.131284,-0.836387 0.654844,0.097328c0.039324,0.48032 0.914565,0.618021 0.92955,1.004336c-0.630087,1.221155 -1.177767,2.481902 -1.923861,3.65095c-0.167938,-0.452623 0.660512,-1.587048 0.925235,-2.25313c0.510817,-0.575772 0.949768,-2.127428 -0.381901,-1.915921c-0.772486,1.076558 -1.811643,-0.678605 -2.568014,0.353114c-0.64208,0.171129 -1.651931,-0.993561 -1.838192,0.12631c0.483588,1.33012 1.489826,2.46372 2.016306,3.78011c-0.178649,-0.094112 -0.280376,-0.259223 -0.39197,-0.407171l0,0.000001zm-1.009093,-4.874727c-0.349595,-0.15245 0.147351,0.810454 -0.000007,0l0.000007,0zm2.089528,0.113733c-0.453812,-0.68623 -0.210425,0.832611 0,0zm2.025346,0c-0.453812,-0.68623 -0.210428,0.832611 0,0zm-9.42893,-5.070646c-0.802103,-0.727361 -1.68873,-1.40987 -2.386296,-2.211621c1.742673,1.288911 3.337713,2.740501 4.908196,4.195726c0.417033,0.51203 -0.72754,-0.478152 -0.940564,-0.644129c-0.533007,-0.44106 -1.059033,-0.888825 -1.581337,-1.339976l0.000001,0zm12.386086,2.079601c1.355751,-1.509353 2.620697,-3.091697 4.082395,-4.52065c-0.244759,0.615235 -1.032656,1.351409 -1.528057,1.985045c-0.827315,0.91965 -1.600637,1.892012 -2.546693,2.716568c-0.118078,0.111516 -0.294397,-0.152618 -0.007633,-0.180964l-0.000012,0l-0.000001,0zm-2.936587,-1.431902c0.468423,-1.197133 1.147879,-2.336662 1.905908,-3.408069c-0.017617,0.594363 -0.821564,1.720878 -1.20799,2.457866c-0.218599,0.29657 -0.402981,0.769538 -0.697919,0.950204zm-5.998612,-1.535279c-0.3263,-0.425265 -1.308551,-1.41548 -1.12515,-1.550519c0.947016,0.938184 1.910206,1.906537 2.590496,3.01602c-0.579336,-0.397003 -0.996192,-0.970408 -1.465347,-1.465502l0.000001,0zm3.750155,-0.334687c-0.066039,-0.399381 0.138965,-2.305939 0.252853,-1.011347c0.000405,0.811122 0.095162,1.724247 -0.157522,2.46252c-0.108205,-0.474651 -0.081953,-0.968792 -0.095332,-1.451173z" stroke-opacity="null" stroke-width="0" fill="#ffff00"/>
  <text stroke="#000" transform="matrix(3.076622247695923,0,0,2.8099124431610107,-258.0203142762184,-117.36150998622179) " xml:space="preserve" text-anchor="start" font-family="Oswald, sans-serif" font-size="24" id="svg_14" y="61.36025" x="86.058766" stroke-opacity="null" stroke-width="0" fill="#5bad5b">M</text>
  <text stroke="#000" transform="matrix(3.076622247695923,0,0,2.8099124431610107,-258.0203142762184,-117.36150998622179) " xml:space="preserve" text-anchor="start" font-family="Oswald, sans-serif" font-size="24" id="svg_15" y="61.182309" x="104.423062" stroke-opacity="null" stroke-width="0" fill="#af90d1">P</text>
  <text stroke="#000" transform="matrix(3.076622247695923,0,0,2.8099124431610107,-258.0203142762184,-117.36150998622179) " xml:space="preserve" text-anchor="start" font-family="Oswald, sans-serif" font-size="24" id="svg_16" y="61.182309" x="119.862071" fill-opacity="null" stroke-opacity="null" stroke-width="0" fill="#5f5ec4">D</text>
  <text stroke="#000" transform="matrix(3.076622247695923,0,0,2.8099124431610107,-258.0203142762184,-117.36150998622179) " xml:space="preserve" text-anchor="start" font-family="Oswald, sans-serif" font-size="24" id="svg_17" y="61.182309" x="125.225095" stroke-opacity="null" stroke-width="0" fill="#935858">C</text>
 </g>
</svg>